<svg width="177" height="30" viewBox="0 0 177 30" fill="none" xmlns="http://www.w3.org/2000/svg">
<path d="M8.83221 22.561C7.23847 22.8715 5.86802 22.2811 5.86802 21.2346V8.9245V8.0016L2.9642 7.43617C1.37045 7.12567 0 7.71601 0 8.76254V28.5909C0 29.6375 1.37045 30.2278 2.9642 29.9173L22.4351 26.128C23.105 25.9976 23.635 25.3709 23.635 24.7316V19.6792L23.4749 19.7098L8.83221 22.561Z" fill="white"/>
<path d="M28.3079 3.87205L8.83697 0.0827046C7.24322 -0.227803 5.87277 0.362545 5.87277 1.40907V8.00448L6.03282 8.03514L22.4399 11.2284C23.1098 11.3587 23.6397 11.9855 23.6397 12.6247V18.8214V19.6821L28.3079 18.7735C28.9778 18.6432 29.5078 18.0164 29.5078 17.3772V5.26741C29.5078 4.62819 28.9768 4.00142 28.3079 3.87205Z" fill="white"/>
<path d="M51.6123 14.0603C53.0613 13.3243 53.9449 12.0229 53.9449 10.3036C53.9449 7.92207 52.3243 5.78589 48.2983 5.78589H40.3928V23.2673H48.5685C52.6933 23.2673 54.6579 21.2538 54.6579 18.2589C54.657 16.5156 53.6747 14.8213 51.6123 14.0603ZM43.7058 8.51145H48.052C49.7703 8.51145 50.6549 9.41998 50.6549 10.7214C50.6549 12.1705 49.7713 13.078 48.052 13.078H43.7058V8.51145ZM48.396 20.5177H43.7068V15.6809H48.396C50.1882 15.6809 51.2682 16.4668 51.2682 18.1113C51.2682 19.6341 50.2619 20.5177 48.396 20.5177Z" fill="white"/>
<path d="M62.1446 10.3036C58.3879 10.3036 55.8837 12.9554 55.8837 16.9325C55.8837 20.9835 58.4616 23.5615 62.1935 23.5615C65.2382 23.5615 67.4482 21.916 68.0864 19.338H65.1155C64.6488 20.467 63.6914 21.1551 62.2184 21.1551C60.4263 21.1551 59.1497 20.1488 58.9284 17.8899H68.4056V17.153C68.4056 13.1279 66.024 10.3036 62.1446 10.3036ZM58.9533 15.7298C59.2475 13.6425 60.4752 12.71 62.1207 12.71C63.9617 12.71 65.0666 13.9377 65.312 15.7298H58.9533Z" fill="white"/>
<path d="M78.1041 10.5987L76.8764 13.9875C76.2133 16.0987 75.5261 18.3336 74.8879 20.4698C74.2496 18.3585 73.5624 16.0997 72.8993 14.0124L71.6716 10.5997H68.3567L73.0459 23.2692H76.6062L81.3203 10.5997H78.1041V10.5987Z" fill="white"/>
<path d="M87.4596 10.3036C83.7029 10.3036 81.1987 12.9554 81.1987 16.9325C81.1987 20.9835 83.7767 23.5615 87.5085 23.5615C90.5532 23.5615 92.7632 21.916 93.4014 19.338H90.4305C89.9638 20.467 89.0064 21.1551 87.5334 21.1551C85.7413 21.1551 84.4648 20.1488 84.2434 17.8899H93.7206V17.153C93.7206 13.1279 91.3381 10.3036 87.4596 10.3036ZM84.2673 15.7298C84.5615 13.6425 85.7892 12.71 87.4347 12.71C89.2757 12.71 90.3807 13.9377 90.626 15.7298H84.2673Z" fill="white"/>
<path d="M98.5573 5.78685H95.4638V23.2682H98.5573V5.78685Z" fill="white"/>
<path d="M113.73 5.78685H106.045V23.2682H109.359V17.1549H113.729C117.756 17.1549 119.916 14.8472 119.916 11.4833C119.917 8.09457 117.757 5.78685 113.73 5.78685ZM113.583 14.3057H109.36V8.63413H113.583C115.523 8.63413 116.578 9.66532 116.578 11.4824C116.578 13.2994 115.522 14.3057 113.583 14.3057Z" fill="white"/>
<path d="M124.509 5.78685H121.415V23.2682H124.509V5.78685Z" fill="white"/>
<path d="M135.435 19.339C134.968 20.4679 134.011 21.156 132.538 21.156C130.746 21.156 129.469 20.1497 129.248 17.8909H138.725V17.1539C138.725 13.1269 136.343 10.3036 132.464 10.3036C128.707 10.3036 126.203 12.9554 126.203 16.9325C126.203 20.9835 128.781 23.5615 132.513 23.5615C135.558 23.5615 137.768 21.916 138.406 19.338L135.435 19.339ZM132.439 12.71C134.28 12.71 135.385 13.9377 135.63 15.7298H129.272C129.567 13.6435 130.795 12.71 132.439 12.71Z" fill="white"/>
<path d="M138.209 23.2682H141.671L142.138 22.605C142.972 21.4263 143.807 20.1986 144.618 19.0208C143.511 19.0218 142.404 19.0218 141.298 19.0218L138.209 23.2682Z" fill="white"/>
<path d="M150.829 10.5987H147.367L146.704 11.5322C146.041 12.5145 145.329 13.5457 144.691 14.528C144.028 13.5217 143.365 12.5394 142.652 11.5322L141.989 10.5987H138.454L141.705 15.1011C142.675 16.4073 143.646 17.7136 144.616 19.0198C145.426 20.1986 146.237 21.4013 147.071 22.6041L147.538 23.2672H151.073L146.359 16.761L150.829 10.5987Z" fill="white"/>
<path d="M160.086 17.6944C160.086 19.9533 158.613 20.8867 157.262 20.8867C155.667 20.8867 154.881 20.1009 154.881 18.4803V10.5988H151.787V18.9959C151.787 22.0157 153.58 23.5624 156.206 23.5624C158.023 23.5624 159.349 22.6539 160.184 21.4263V23.2673H163.178V10.5978H160.085V17.6944H160.086Z" fill="white"/>
<path d="M171.65 15.7796L170.055 15.5343C168.679 15.2889 167.943 14.9209 167.943 13.9875C167.943 13.079 168.655 12.5145 170.153 12.5145C171.749 12.5145 172.756 12.9812 172.829 14.6018H175.751C175.652 11.9989 174.057 10.3055 170.153 10.3055C166.764 10.3055 164.899 11.7545 164.899 14.136C164.899 16.2971 166.323 17.4999 169.048 17.9666L170.497 18.2119C172.412 18.5311 172.978 18.9729 172.978 19.8814C172.978 20.8388 172.265 21.4032 170.473 21.4032C168.631 21.4032 167.822 20.8388 167.65 19.2422H164.63C164.827 22.3108 166.815 23.6123 170.424 23.6123C173.96 23.6123 176.047 22.1881 176.047 19.6351C176.044 17.4491 174.694 16.3192 171.65 15.7796Z" fill="white"/>
</svg>
