<svg width="50" height="50" viewBox="0 0 50 50" fill="none" xmlns="http://www.w3.org/2000/svg">
<path d="M47.8492 41.9171L37.1892 38.4621C36.9352 38.3759 36.6684 38.3325 36.4001 38.3338H36.2501L34.0001 35.3338C33.8647 35.1534 33.6621 35.0356 33.4384 35.0071C33.4033 35.0073 33.3682 35.0102 33.3334 35.0155V35.0005H32.5001V32.3388C34.6012 30.7096 35.8316 28.2009 35.8334 25.5421V18.6905C35.977 18.6913 36.1184 18.6545 36.2434 18.5838C36.5049 18.4361 36.6665 18.1591 36.6667 17.8588V11.2613L40.8334 9.57128V10.8338C39.9129 10.8338 39.1667 11.5799 39.1667 12.5004V17.5005C39.1667 18.421 39.9129 19.1671 40.8334 19.1671H42.5001C43.4206 19.1671 44.1667 18.421 44.1667 17.5005V12.5004C44.1667 11.5799 43.4206 10.8338 42.5001 10.8338V8.33378C42.5004 8.00617 42.3086 7.70878 42.0101 7.57378L25.3434 0.0737696C25.1261 -0.0239388 24.8773 -0.0239388 24.6601 0.0737696L7.99337 7.57378C7.57347 7.76232 7.38597 8.25555 7.57451 8.67534C7.66243 8.87117 7.82264 9.02555 8.0217 9.10628L13.3334 11.2613V17.8588C13.3334 18.319 13.7065 18.6921 14.1667 18.6921V25.5421C14.1685 28.2009 15.3989 30.7096 17.5 32.3388V35.0005H16.6667V35.0155C16.6319 35.0102 16.5968 35.0073 16.5617 35.0071C16.338 35.0356 16.1354 35.1534 16 35.3338L13.75 38.3338H13.6C13.3372 38.332 13.076 38.3737 12.8267 38.4571L2.10169 41.9338C0.829818 42.4313 -0.00528731 43.6598 2.51991e-05 45.0255V49.1672C2.51991e-05 49.6274 0.373151 50.0005 0.833359 50.0005H49.1667C49.627 50.0005 50.0001 49.6274 50.0001 49.1672V45.0255C50.0005 43.6425 49.1436 42.4041 47.8492 41.9171ZM42.5001 12.5004V17.5005H40.8334V12.5004H42.5001ZM33.1851 37.0213L34.7059 39.0538L28.3667 44.6888L26.2501 42.5696L33.1851 37.0213ZM25.0001 41.433L19.1667 36.7663V33.358C20.3012 33.8898 21.5387 34.1661 22.7917 34.1671H27.2084C28.4614 34.1661 29.6989 33.8898 30.8334 33.358V36.7663L25.0001 41.433ZM14.0434 7.51044C13.6357 7.57149 13.3338 7.92149 13.3334 8.33378V9.46294L10.4525 8.29628L25.0001 1.75044L39.5476 8.29628L36.6667 9.46294V8.33378C36.6666 7.92253 36.3665 7.57294 35.9601 7.51044L25.1267 5.84378C25.0439 5.83075 24.9595 5.83075 24.8767 5.84378L14.0434 7.51044ZM14.9834 10.8338C14.9926 10.7899 14.9983 10.7452 15 10.7004V9.04878L25.0001 7.51044L35.0001 9.04878V10.7004C35.0018 10.7452 35.0075 10.7899 35.0167 10.8338H35.0001V16.5255C33.8039 16.0638 32.5321 15.8292 31.2501 15.8338C29.1704 15.7973 27.1363 16.4452 25.4609 17.678C25.2942 17.8063 25.1434 17.9371 25.0001 18.073C24.8567 17.938 24.7051 17.8071 24.5409 17.6796C22.8654 16.4459 20.8306 15.7972 18.75 15.8338C17.468 15.8292 16.1962 16.0638 15 16.5255V10.8338H14.9834ZM15.8334 25.5421V18.008C16.7692 17.6725 17.7559 17.5009 18.75 17.5005C20.4572 17.4618 22.1299 17.985 23.5109 18.9896C23.8202 19.2267 24.0962 19.5042 24.3317 19.8146C24.6079 20.1829 25.1302 20.2574 25.4984 19.9813C25.5615 19.9339 25.6177 19.8777 25.6651 19.8146C25.9011 19.5036 26.1778 19.2256 26.4876 18.988C27.8692 17.9837 29.5425 17.4611 31.2501 17.5005C32.2442 17.5009 33.2309 17.6725 34.1667 18.008V25.5421C34.1621 29.3832 31.0494 32.4959 27.2084 32.5005H22.7917C18.9507 32.4959 15.838 29.3832 15.8334 25.5421ZM16.8175 37.0213L23.75 42.5696L21.6334 44.6888L15.2942 39.0538L16.8175 37.0213ZM48.3334 48.3338H1.66669V45.0255C1.65951 44.3612 2.05461 43.7586 2.66669 43.5005L13.3575 40.0371C13.4358 40.0115 13.5177 39.9991 13.6 40.0005H13.85L21.1134 46.4563C21.4431 46.7492 21.9439 46.7347 22.2559 46.423L25.0001 43.6788L27.7442 46.423C28.0562 46.7347 28.557 46.7492 28.8867 46.4563L36.1501 40.0005H36.4001C36.4883 39.9996 36.5759 40.014 36.6592 40.043L47.2859 43.4838C47.9202 43.7318 48.3364 44.3444 48.3334 45.0255V48.3338Z" fill="#015EFF"/>
</svg>
