<svg width="87" height="61" viewBox="0 0 87 61" fill="none" xmlns="http://www.w3.org/2000/svg">
<path d="M77.9331 24.9365H60.1621C59.4581 24.9365 58.8877 25.507 58.8877 26.2109C58.8877 26.9149 59.4581 27.4854 60.1621 27.4854H77.9331C78.637 27.4854 79.2075 26.9149 79.2075 26.2109C79.2075 25.507 78.6369 24.9365 77.9331 24.9365Z" fill="#015EFF"/>
<path d="M77.9331 30.3887H60.1621C59.4581 30.3887 58.8877 30.9591 58.8877 31.6631C58.8877 32.3671 59.4581 32.9375 60.1621 32.9375H77.9331C78.637 32.9375 79.2075 32.3671 79.2075 31.6631C79.2075 30.9591 78.6369 30.3887 77.9331 30.3887Z" fill="#015EFF"/>
<path d="M79.2077 11.2736C79.2077 9.88155 78.0752 8.74902 76.6832 8.74902H52.879C51.487 8.74902 50.3545 9.88155 50.3545 11.2736V14.0569C50.3545 15.4489 51.487 16.5814 52.879 16.5814H76.683C78.075 16.5814 79.2076 15.4489 79.2076 14.0569V11.2736H79.2077ZM76.6589 14.0326H52.9033V11.2977H76.6589V14.0326Z" fill="#015EFF"/>
<path d="M77.9331 19.4854H60.1621C59.4581 19.4854 58.8877 20.0558 58.8877 20.7598C58.8877 21.4638 59.4581 22.0342 60.1621 22.0342H77.9331C78.637 22.0342 79.2075 21.4638 79.2075 20.7598C79.2075 20.0558 78.6369 19.4854 77.9331 19.4854Z" fill="#015EFF"/>
<path d="M77.9331 35.8398H60.1621C59.4581 35.8398 58.8877 36.4103 58.8877 37.1143C58.8877 37.8182 59.4581 38.3887 60.1621 38.3887H77.9331C78.637 38.3887 79.2075 37.8182 79.2075 37.1143C79.2075 36.4103 78.6369 35.8398 77.9331 35.8398Z" fill="#015EFF"/>
<path d="M77.9331 41.292H60.1621C59.4581 41.292 58.8877 41.8624 58.8877 42.5664C58.8877 43.2704 59.4581 43.8408 60.1621 43.8408H77.9331C78.637 43.8408 79.2075 43.2704 79.2075 42.5664C79.2075 41.8624 78.6369 41.292 77.9331 41.292Z" fill="#015EFF"/>
<path d="M77.9331 46.7432H60.1621C59.4581 46.7432 58.8877 47.3136 58.8877 48.0176C58.8877 48.7216 59.4581 49.292 60.1621 49.292H77.9331C78.637 49.292 79.2075 48.7216 79.2075 48.0176C79.2075 47.3136 78.6369 46.7432 77.9331 46.7432Z" fill="#015EFF"/>
<path d="M55.1478 30.3887H51.6289C50.9249 30.3887 50.3545 30.9591 50.3545 31.6631C50.3545 32.3671 50.9249 32.9375 51.6289 32.9375H55.1478C55.8518 32.9375 56.4222 32.3671 56.4222 31.6631C56.4222 30.9591 55.8516 30.3887 55.1478 30.3887Z" fill="#015EFF"/>
<path d="M55.1478 19.4854H51.6289C50.9249 19.4854 50.3545 20.0558 50.3545 20.7598C50.3545 21.4638 50.9249 22.0342 51.6289 22.0342H55.1478C55.8518 22.0342 56.4222 21.4638 56.4222 20.7598C56.4222 20.0558 55.8516 19.4854 55.1478 19.4854Z" fill="#015EFF"/>
<path d="M55.1478 41.292H51.6289C50.9249 41.292 50.3545 41.8624 50.3545 42.5664C50.3545 43.2704 50.9249 43.8408 51.6289 43.8408H55.1478C55.8518 43.8408 56.4222 43.2704 56.4222 42.5664C56.4222 41.8624 55.8516 41.292 55.1478 41.292Z" fill="#015EFF"/>
<path d="M11.8116 11.2978H24.2288C24.9328 11.2978 25.5032 10.7274 25.5032 10.0234C25.5032 9.31945 24.9328 8.74902 24.2288 8.74902H11.8116C9.94471 8.74902 8.42578 10.2678 8.42578 12.1349V48.7322C8.42578 50.5991 9.94454 52.118 11.8116 52.118H42.593C44.4599 52.118 45.9789 50.5993 45.9789 48.7322V12.1349C45.9789 10.2679 44.4601 8.74902 42.593 8.74902H30.176C29.4721 8.74902 28.9016 9.31945 28.9016 10.0234C28.9016 10.7274 29.4721 11.2978 30.176 11.2978H42.593C43.0467 11.2978 43.4301 11.6812 43.4301 12.1349V44.3616C42.9911 44.0439 42.5237 43.7793 42.037 43.5791C42.0287 43.5756 42.0204 43.5725 42.0122 43.5691L32.4158 39.8526L32.4146 38.5491C34.0078 37.3 35.134 35.4829 35.4857 33.4046C37.3899 33.0199 38.9057 31.431 38.9057 29.4818C38.9057 28.2162 38.3215 27.0001 37.413 26.202C37.4536 26.019 37.4767 25.8297 37.4767 25.6346V19.9519C37.4767 17.8529 35.6584 16.3126 33.7756 16.4587C33.7711 16.459 33.7666 16.4592 33.7624 16.4592C33.7281 16.4592 33.7077 16.4485 33.7075 16.4527C33.2861 14.2985 31.8826 13.2066 29.5363 13.2066H22.0694C18.6307 13.2066 15.8332 16.0041 15.8332 19.4428V24.8885C15.8332 25.614 16.0665 26.2847 16.4586 26.8348C15.8615 27.5897 15.4989 28.5392 15.4989 29.4818C15.4989 31.4196 17.001 33.0161 18.9159 33.4041C19.262 35.4921 20.3794 37.2943 21.9843 38.5348V39.8505L12.3923 43.5694C12.3841 43.5727 12.3759 43.5759 12.3678 43.5793C11.8864 43.7774 11.4174 44.0454 10.9746 44.3694V12.1349C10.9746 11.6812 11.3579 11.2978 11.8116 11.2978ZM35.6042 28.1425C35.6441 28.1306 35.683 28.1165 35.7221 28.1027C36.0949 28.422 36.3571 28.96 36.3571 29.4816C36.3571 29.9744 36.0336 30.4021 35.6042 30.6638V28.1425ZM18.8005 30.6641C18.3745 30.4045 18.0477 29.9774 18.0477 29.4818C18.0477 29.0301 18.2945 28.5306 18.6494 28.2033C18.6996 28.2116 18.7497 28.2205 18.8005 28.2264V30.6641ZM19.1969 25.7031C18.7475 25.7031 18.382 25.3376 18.382 24.8883V19.4427C18.382 17.4094 20.0362 15.7552 22.0694 15.7552H29.5363C30.8773 15.7552 31.0618 16.2038 31.2063 16.9423C31.4554 18.2172 32.6426 19.1044 33.9711 18.9997C34.4098 18.97 34.9279 19.3694 34.9279 19.9518V25.6344C34.9279 25.6689 34.8939 25.7029 34.8592 25.7029C34.7705 25.7029 34.684 25.6939 34.6003 25.6767C34.5955 25.6757 34.5911 25.6742 34.5863 25.6732C34.0069 25.5476 33.5712 25.0314 33.5712 24.4151C33.5712 22.9614 31.6149 22.4579 30.9244 23.7509C30.2805 24.9549 29.034 25.7029 27.6711 25.7029H19.1969V25.7031ZM21.3493 32.0162V28.2519H27.6714C29.2117 28.2519 30.664 27.6874 31.783 26.7053C32.1203 27.1571 32.5553 27.5314 33.0553 27.7992V32.0162C33.0553 35.2173 30.4406 37.7675 27.3039 37.7675C23.6057 37.7675 21.3493 34.8734 21.3493 32.0162ZM31.6924 42.3057C29.2763 45.1783 24.8876 44.8795 22.71 42.3028C23.2742 42.0842 23.7126 41.953 24.1053 41.4691C24.5778 40.8859 24.5331 40.3068 24.5331 39.8876C26.1773 40.4184 28.0904 40.4888 29.8671 39.9102C29.8675 40.293 29.8212 40.8449 30.2731 41.4376C30.6712 41.9633 31.1001 42.0763 31.6924 42.3057ZM13.327 45.9405L20.2367 43.2619C23.4123 47.969 30.7861 48.2506 34.1649 43.2634L41.0787 45.9409C42.0224 46.3329 42.8666 47.1181 43.4302 48.1182V48.7322C43.4302 49.1858 43.0469 49.5692 42.5932 49.5692H11.8116C11.3579 49.5692 10.9746 49.1858 10.9746 48.7322V48.1164C11.642 46.9597 12.638 46.2275 13.327 45.9405Z" fill="#015EFF"/>
<path d="M82.2599 0H4.74012C2.12656 0 0 2.12639 0 4.74012V56.1284C0 58.7421 2.12656 60.8685 4.74012 60.8685H82.2599C84.8736 60.8685 87 58.7419 87 56.1284V33.4079C87 32.7039 86.4296 32.1335 85.7256 32.1335C85.0216 32.1335 84.4512 32.7039 84.4512 33.4079V56.1284C84.4512 57.3367 83.4682 58.3197 82.2599 58.3197H4.74012C3.53181 58.3197 2.54882 57.3367 2.54882 56.1284V4.74012C2.54882 3.53181 3.53181 2.54882 4.74012 2.54882H82.2599C83.468 2.54882 84.4512 3.53181 84.4512 4.74012V27.4606C84.4512 28.1646 85.0216 28.735 85.7256 28.735C86.4296 28.735 87 28.1646 87 27.4606V4.74012C87 2.12639 84.8736 0 82.2599 0Z" fill="#015EFF"/>
</svg>
