<svg width="323" height="177" viewBox="0 0 323 177" fill="none" xmlns="http://www.w3.org/2000/svg">
<path d="M306.45 127.782L306.874 127.972C308.434 128.671 309.679 129.916 310.378 131.476L310.568 131.9C311.084 133.051 312.188 133.766 313.45 133.766H313.45C314.712 133.766 315.816 133.051 316.332 131.9L316.522 131.475C317.221 129.915 318.466 128.671 320.025 127.972L320.45 127.782C321.602 127.266 322.317 126.161 322.317 124.9C322.317 123.638 321.602 122.534 320.45 122.018L320.026 121.828C318.466 121.128 317.222 119.884 316.522 118.324L316.332 117.9C315.816 116.748 314.712 116.033 313.45 116.033C312.189 116.033 311.085 116.748 310.569 117.899L310.378 118.324C309.679 119.884 308.435 121.128 306.875 121.828L306.45 122.018C305.299 122.534 304.584 123.638 304.584 124.9C304.584 126.161 305.299 127.266 306.45 127.782ZM313.45 119.792C314.486 122.055 316.295 123.864 318.558 124.9C316.295 125.936 314.486 127.745 313.45 130.008C312.414 127.745 310.605 125.936 308.342 124.9C310.605 123.864 312.415 122.054 313.45 119.792Z" fill="#015EFF"/>
<path d="M3.66173 99.5823C3.66173 99.5823 3.66217 99.5823 3.66173 99.5823L4.49396 99.955C7.55494 101.327 9.99564 103.768 11.3673 106.829L11.7405 107.661C12.7527 109.92 14.9193 111.323 17.3946 111.323C19.8695 111.323 22.0356 109.92 23.0474 107.662L23.4206 106.829C24.7923 103.769 27.2334 101.327 30.2935 99.9555L31.1266 99.5823C33.3852 98.5701 34.7884 96.4036 34.7884 93.9284C34.7884 91.4536 33.3852 89.2871 31.1271 88.2749L30.2944 87.9017C27.2334 86.5301 24.7927 84.0891 23.4211 81.0286L23.0478 80.196C22.0356 77.9376 19.8695 76.5344 17.3946 76.5344C17.3942 76.5344 17.3942 76.5344 17.3942 76.5344C14.9193 76.5344 12.7527 77.9371 11.7405 80.196L11.3673 81.0286C9.99564 84.0891 7.55494 86.5301 4.49396 87.9017L3.66173 88.2749C1.4032 89.2871 0 91.4536 0 93.9284C0 96.4036 1.4032 98.5701 3.66173 99.5823ZM17.3942 83.9078C19.4265 88.3474 22.9759 91.8965 27.4151 93.9284C22.9754 95.9607 19.4261 99.5103 17.3942 103.949C15.3623 99.5098 11.813 95.9607 7.37321 93.9284C11.8125 91.8965 15.3623 88.3474 17.3942 83.9078Z" fill="#015EFF"/>
<path d="M262.683 18.4381L263.349 18.7367C265.798 19.834 267.75 21.7865 268.847 24.2352L269.146 24.9014C269.956 26.7085 271.689 27.8307 273.669 27.8307C275.649 27.8307 277.383 26.7078 278.192 24.9014L278.491 24.2352C279.588 21.7865 281.541 19.834 283.989 18.7364L284.655 18.4381C286.462 17.6284 287.585 15.8952 287.585 13.9153C287.585 11.9355 286.462 10.2023 284.656 9.39253L283.989 9.09395C281.541 7.99666 279.588 6.04379 278.491 3.59542L278.192 2.9293C277.382 1.12252 275.649 0 273.669 0C273.669 0 273.669 0 273.669 0C271.689 0 269.956 1.12252 269.146 2.9293L268.847 3.59542C267.75 6.04379 265.798 7.99666 263.349 9.09395L262.683 9.39253C260.876 10.2023 259.754 11.9355 259.754 13.9153C259.754 15.8956 260.876 17.6284 262.683 18.4381ZM273.669 5.89912C275.295 9.45083 278.135 12.2902 281.686 13.9157C278.135 15.5412 275.295 18.3813 273.669 21.9323C272.044 18.3806 269.204 15.5412 265.653 13.9157C269.204 12.2898 272.044 9.45047 273.669 5.89912Z" fill="#015EFF"/>
<path d="M231.031 80.112C230.525 80.112 230.033 79.9404 229.636 79.6252L204.96 60.0171C204.72 59.8372 204.519 59.611 204.368 59.3518C204.217 59.0927 204.119 58.8059 204.081 58.5084C204.043 58.2109 204.064 57.9087 204.145 57.6198C204.225 57.3308 204.363 57.061 204.55 56.8261C204.736 56.5913 204.968 56.3963 205.232 56.2527C205.495 56.109 205.784 56.0197 206.083 55.9899C206.381 55.9601 206.683 55.9904 206.969 56.0791C207.256 56.1678 207.522 56.3131 207.751 56.5064L232.427 76.1123C232.791 76.4019 233.057 76.7976 233.186 77.2447C233.316 77.6918 233.303 78.1682 233.149 78.6077C232.996 79.0472 232.71 79.4281 232.33 79.6977C231.951 79.9672 231.497 80.112 231.031 80.112Z" fill="#015EFF"/>
<path d="M78.4912 80.112C78.0258 80.112 77.5718 79.9672 77.1923 79.6977C76.8128 79.4281 76.5266 79.0472 76.3732 78.6077C76.2199 78.1682 76.2071 77.6918 76.3366 77.2447C76.4661 76.7976 76.7315 76.4019 77.0959 76.1123L101.772 56.5064C102.001 56.3131 102.267 56.1678 102.553 56.0791C102.84 55.9904 103.141 55.9601 103.44 55.9899C103.738 56.0197 104.028 56.109 104.291 56.2527C104.554 56.3963 104.786 56.5913 104.973 56.8261C105.16 57.061 105.297 57.3308 105.378 57.6198C105.458 57.9087 105.48 58.2109 105.442 58.5084C105.403 58.8059 105.306 59.0927 105.155 59.3518C105.004 59.611 104.802 59.8372 104.562 60.0171L79.8865 79.6252C79.4898 79.9404 78.998 80.112 78.4912 80.112Z" fill="#015EFF"/>
<path d="M180.178 39.7336C179.671 39.7336 179.179 39.562 178.783 39.2468L154.762 20.1658L130.741 39.2468C130.511 39.4319 130.246 39.5696 129.962 39.6519C129.678 39.7343 129.381 39.7598 129.087 39.7269C128.794 39.6941 128.509 39.6034 128.251 39.4603C127.992 39.3172 127.764 39.1244 127.581 38.8929C127.397 38.6615 127.26 38.396 127.179 38.1118C127.099 37.8275 127.075 37.53 127.109 37.2365C127.143 36.9429 127.236 36.659 127.38 36.4012C127.524 36.1433 127.718 35.9166 127.951 35.7339L153.367 15.5447C153.764 15.2295 154.255 15.058 154.762 15.058C155.269 15.058 155.761 15.2295 156.157 15.5447L181.573 35.7339C181.938 36.0235 182.203 36.4192 182.333 36.8663C182.462 37.3134 182.449 37.7898 182.296 38.2293C182.143 38.6688 181.856 39.0497 181.477 39.3192C181.097 39.5888 180.643 39.7336 180.178 39.7336Z" fill="#015EFF"/>
<path d="M231.032 172.085H180.738C180.143 172.085 179.573 171.848 179.152 171.428C178.731 171.007 178.495 170.437 178.495 169.842C178.495 169.247 178.731 168.676 179.152 168.255C179.573 167.835 180.143 167.598 180.738 167.598H228.789V77.8686C228.789 77.2737 229.025 76.7031 229.446 76.2824C229.866 75.8617 230.437 75.6254 231.032 75.6254C231.627 75.6254 232.197 75.8617 232.618 76.2824C233.039 76.7031 233.275 77.2737 233.275 77.8686V169.842C233.275 170.437 233.039 171.007 232.618 171.428C232.197 171.848 231.627 172.085 231.032 172.085Z" fill="#015EFF"/>
<path d="M142.872 172.085H136.143C135.548 172.085 134.977 171.849 134.556 171.428C134.136 171.007 133.899 170.437 133.899 169.842C133.899 169.247 134.136 168.676 134.556 168.256C134.977 167.835 135.548 167.599 136.143 167.599H142.872C143.467 167.599 144.038 167.835 144.459 168.256C144.879 168.676 145.116 169.247 145.116 169.842C145.116 170.437 144.879 171.007 144.459 171.428C144.038 171.849 143.467 172.085 142.872 172.085Z" fill="#015EFF"/>
<path d="M120.44 172.085H78.4913C77.8963 172.085 77.3258 171.848 76.9051 171.428C76.4844 171.007 76.248 170.437 76.248 169.842V77.8686C76.248 77.2737 76.4844 76.7031 76.9051 76.2824C77.3258 75.8617 77.8963 75.6254 78.4913 75.6254C79.0862 75.6254 79.6568 75.8617 80.0775 76.2824C80.4982 76.7031 80.7345 77.2737 80.7345 77.8686V167.598H120.44C121.035 167.598 121.605 167.835 122.026 168.255C122.447 168.676 122.683 169.247 122.683 169.842C122.683 170.437 122.447 171.007 122.026 171.428C121.605 171.848 121.035 172.085 120.44 172.085Z" fill="#015EFF"/>
<path d="M165.013 172.085H158.441C157.846 172.085 157.275 171.849 156.854 171.428C156.434 171.007 156.197 170.437 156.197 169.842C156.197 169.247 156.434 168.676 156.854 168.256C157.275 167.835 157.846 167.599 158.441 167.599H165.013C165.608 167.599 166.179 167.835 166.599 168.256C167.02 168.676 167.256 169.247 167.256 169.842C167.256 170.437 167.02 171.007 166.599 171.428C166.179 171.849 165.608 172.085 165.013 172.085Z" fill="#015EFF"/>
<path d="M154.762 135.641C146.981 135.638 139.456 132.853 133.548 127.79L131.897 126.368L77.036 79.5758C76.8118 79.3844 76.6275 79.1506 76.4937 78.8879C76.3598 78.6252 76.2791 78.3387 76.2559 78.0448C76.2328 77.7509 76.2678 77.4553 76.3589 77.1749C76.45 76.8945 76.5955 76.6348 76.787 76.4106C76.9785 76.1864 77.2122 76.0022 77.4749 75.8683C77.7376 75.7345 78.0241 75.6537 78.318 75.6306C78.6119 75.6075 78.9075 75.6425 79.1879 75.7336C79.4683 75.8247 79.728 75.9701 79.9522 76.1616L136.482 124.378C141.577 128.751 148.07 131.155 154.785 131.155C161.499 131.155 167.992 128.751 173.087 124.378L174.711 122.974L229.577 76.1616C230.029 75.7749 230.617 75.5839 231.211 75.6306C231.804 75.6773 232.355 75.9579 232.742 76.4106C233.128 76.8634 233.319 77.4512 233.273 78.0448C233.226 78.6384 232.945 79.1891 232.493 79.5758L175.992 127.774C170.08 132.844 162.55 135.634 154.762 135.641Z" fill="#015EFF"/>
<path d="M165.013 172.085H158.441C157.846 172.085 157.275 171.849 156.854 171.428C156.434 171.007 156.197 170.437 156.197 169.842C156.197 169.247 156.434 168.676 156.854 168.256C157.275 167.835 157.846 167.599 158.441 167.599H165.013C165.608 167.599 166.179 167.835 166.599 168.256C167.02 168.676 167.256 169.247 167.256 169.842C167.256 170.437 167.02 171.007 166.599 171.428C166.179 171.849 165.608 172.085 165.013 172.085Z" fill="#015EFF"/>
<path d="M120.44 172.085H78.4912C78.0289 172.085 77.578 171.943 77.1999 171.677C76.8218 171.411 76.5351 171.035 76.3789 170.6C76.2228 170.165 76.2049 169.692 76.3276 169.246C76.4503 168.801 76.7076 168.404 77.0645 168.11L131.934 122.931C132.393 122.552 132.985 122.37 133.578 122.426C134.171 122.483 134.718 122.772 135.097 123.232C135.477 123.691 135.658 124.282 135.602 124.875C135.546 125.469 135.256 126.015 134.797 126.395L84.7453 167.599H120.44C121.035 167.599 121.605 167.835 122.026 168.256C122.447 168.676 122.683 169.247 122.683 169.842C122.683 170.437 122.447 171.007 122.026 171.428C121.605 171.849 121.035 172.085 120.44 172.085Z" fill="#015EFF"/>
<path d="M142.872 172.085H136.143C135.548 172.085 134.977 171.849 134.556 171.428C134.136 171.007 133.899 170.437 133.899 169.842C133.899 169.247 134.136 168.676 134.556 168.256C134.977 167.835 135.548 167.599 136.143 167.599H142.872C143.467 167.599 144.038 167.835 144.459 168.256C144.879 168.676 145.116 169.247 145.116 169.842C145.116 170.437 144.879 171.007 144.459 171.428C144.038 171.849 143.467 172.085 142.872 172.085Z" fill="#015EFF"/>
<path d="M231.032 172.085H180.738C180.143 172.085 179.573 171.849 179.152 171.428C178.731 171.007 178.495 170.437 178.495 169.842C178.495 169.247 178.731 168.676 179.152 168.255C179.573 167.835 180.143 167.598 180.738 167.598H224.778L174.726 126.395C174.267 126.016 173.977 125.471 173.92 124.878C173.862 124.286 174.043 123.695 174.421 123.236C174.8 122.777 175.345 122.487 175.937 122.429C176.53 122.372 177.12 122.553 177.58 122.931L232.449 168.11C232.806 168.403 233.063 168.799 233.186 169.244C233.309 169.689 233.291 170.161 233.136 170.595C232.981 171.03 232.696 171.406 232.32 171.673C231.943 171.939 231.493 172.083 231.032 172.085Z" fill="#015EFF"/>
<path d="M206.356 101.154C205.761 101.154 205.191 100.917 204.77 100.497C204.349 100.076 204.113 99.5053 204.113 98.9103V39.7336H105.41V98.9103C105.41 99.5053 105.174 100.076 104.753 100.497C104.333 100.917 103.762 101.154 103.167 101.154C102.572 101.154 102.002 100.917 101.581 100.497C101.16 100.076 100.924 99.5053 100.924 98.9103V37.4903C100.924 36.8954 101.16 36.3248 101.581 35.9041C102.002 35.4834 102.572 35.2471 103.167 35.2471H206.356C206.951 35.2471 207.522 35.4834 207.942 35.9041C208.363 36.3248 208.6 36.8954 208.6 37.4903V98.9103C208.6 99.5053 208.363 100.076 207.942 100.497C207.522 100.917 206.951 101.154 206.356 101.154Z" fill="#015EFF"/>
<path d="M154.762 71.6483C154.167 71.6483 153.596 71.4119 153.176 70.9912C152.755 70.5706 152.519 70 152.519 69.405V50.5236C152.519 49.9287 152.755 49.3581 153.176 48.9374C153.596 48.5167 154.167 48.2804 154.762 48.2804C155.357 48.2804 155.927 48.5167 156.348 48.9374C156.769 49.3581 157.005 49.9287 157.005 50.5236V69.405C157.005 70 156.769 70.5706 156.348 70.9912C155.927 71.4119 155.357 71.6483 154.762 71.6483Z" fill="#3D00FC"/>
<path d="M164.201 62.2086H145.322C144.727 62.2086 144.157 61.9723 143.736 61.5516C143.315 61.1309 143.079 60.5603 143.079 59.9654C143.079 59.3705 143.315 58.7999 143.736 58.3792C144.157 57.9585 144.727 57.7222 145.322 57.7222H164.201C164.796 57.7222 165.367 57.9585 165.788 58.3792C166.208 58.7999 166.445 59.3705 166.445 59.9654C166.445 60.5603 166.208 61.1309 165.788 61.5516C165.367 61.9723 164.796 62.2086 164.201 62.2086Z" fill="#3D00FC"/>
<path d="M185.045 84.1723H124.478C123.883 84.1723 123.312 83.9359 122.891 83.5152C122.471 83.0946 122.234 82.524 122.234 81.929C122.234 81.3341 122.471 80.7635 122.891 80.3428C123.312 79.9221 123.883 79.6858 124.478 79.6858H185.045C185.64 79.6858 186.211 79.9221 186.631 80.3428C187.052 80.7635 187.288 81.3341 187.288 81.929C187.288 82.524 187.052 83.0946 186.631 83.5152C186.211 83.9359 185.64 84.1723 185.045 84.1723Z" fill="#3D00FC"/>
<path d="M185.045 98.4841H124.478C123.883 98.4841 123.312 98.2477 122.891 97.827C122.471 97.4063 122.234 96.8358 122.234 96.2408C122.234 95.6459 122.471 95.0753 122.891 94.6546C123.312 94.2339 123.883 93.9976 124.478 93.9976H185.045C185.64 93.9976 186.211 94.2339 186.631 94.6546C187.052 95.0753 187.288 95.6459 187.288 96.2408C187.288 96.8358 187.052 97.4063 186.631 97.827C186.211 98.2477 185.64 98.4841 185.045 98.4841Z" fill="#3D00FC"/>
</svg>
