<svg width="50" height="50" viewBox="0 0 50 50" fill="none" xmlns="http://www.w3.org/2000/svg">
<path fill-rule="evenodd" clip-rule="evenodd" d="M47.8483 37.75L37.19 34.2966C36.9358 34.2094 36.6688 34.1654 36.4 34.1667H36.25L34 31.1667C33.8647 30.9862 33.6621 30.8684 33.4383 30.84C33.4032 30.8403 33.3681 30.843 33.3333 30.8483V30.8333H32.5V28.1717C34.6012 26.5424 35.8315 24.0337 35.8333 21.375V13.625C35.831 13.2485 35.8031 12.8727 35.75 12.5C36.8715 11.404 37.5025 9.90135 37.5 8.33333V5.83333C37.4999 5.72479 37.4781 5.6174 37.4358 5.5175L37.0833 5.125C36.9583 5.04625 36.8144 5.00302 36.6667 5H20C16.7799 5.00365 14.1703 7.61323 14.1667 10.8333V21.375C14.1686 24.0337 15.399 26.5424 17.5 28.1717V30.8333H16.6667V30.8483C16.6319 30.843 16.5968 30.8402 16.5617 30.84C16.3379 30.8684 16.1353 30.9862 16 31.1667L13.75 34.1667H13.6C13.3372 34.1648 13.0759 34.2064 12.8267 34.29L2.10253 37.7666C0.83013 38.2636 -0.00539048 39.4923 2.6181e-05 40.8583V49.1666C2.6181e-05 49.6269 0.373151 50 0.833359 50H49.1667C49.6269 50 50 49.6269 50 49.1666V40.8583C50.0003 39.4752 49.143 38.2368 47.8483 37.75ZM34.7067 34.8867L33.185 32.8542L26.25 38.4025L28.3675 40.5216L34.7067 34.8867ZM19.1667 32.5992L25 37.2658L30.8333 32.5992V29.1908C29.6987 29.7222 28.4613 29.9984 27.2083 30H22.7917C21.5388 29.9984 20.3014 29.7222 19.1667 29.1908V32.5992ZM20 6.66667C17.7 6.66937 15.8361 8.53333 15.8334 10.8333V12.5H31.6667C33.9667 12.4973 35.8306 10.6333 35.8333 8.33333V6.66667H20ZM15.8334 14.1667V21.375C15.8379 25.216 18.9506 28.3287 22.7917 28.3333H27.2083C31.0494 28.3287 34.1621 25.216 34.1667 21.375V13.625V13.5967C33.3865 13.9712 32.5322 14.166 31.6667 14.1667H15.8334ZM23.75 38.4025L16.8175 32.8542L15.2909 34.8867L21.63 40.5216L23.75 38.4025ZM1.66669 48.3333H48.3333V40.8583C48.3361 40.1774 47.9199 39.5649 47.2858 39.3167L36.66 35.8758C36.5764 35.8469 36.4884 35.8325 36.4 35.8333H36.15L28.8875 42.2892C28.5577 42.5826 28.0563 42.568 27.7442 42.2558L25 39.5117L22.2558 42.2558C21.9438 42.568 21.4423 42.5826 21.1125 42.2892L13.85 35.8333H13.6C13.518 35.8321 13.4365 35.8442 13.3584 35.8692L2.66669 39.3333C2.05482 39.5916 1.65971 40.1941 1.66669 40.8583V48.3333Z" fill="#015EFF"/>
</svg>
